<svg xmlns="http://www.w3.org/2000/svg" xmlns:xlink="http://www.w3.org/1999/xlink" viewBox="0 0 64 64"><defs><style>.cls-1{fill:url(#linear-gradient);}.cls-2{fill:url(#linear-gradient-2);}.cls-3{fill:url(#linear-gradient-3);}.cls-4{fill:#4795ea;}.cls-5{fill:url(#linear-gradient-4);}.cls-6{fill:url(#linear-gradient-5);}.cls-7{fill:url(#linear-gradient-6);}.cls-8{fill:url(#linear-gradient-7);}.cls-9{fill:url(#linear-gradient-8);}</style><linearGradient id="linear-gradient" x1="7" y1="24" x2="57" y2="24" gradientUnits="userSpaceOnUse"><stop offset="0" stop-color="#fe9661"/><stop offset="1" stop-color="#ffb369"/></linearGradient><linearGradient id="linear-gradient-2" x1="32" y1="38" x2="32" y2="10" gradientUnits="userSpaceOnUse"><stop offset="0" stop-color="#d3e6f5"/><stop offset="1" stop-color="#f0f7fc"/></linearGradient><linearGradient id="linear-gradient-3" x1="39" y1="49" x2="57" y2="49" gradientUnits="userSpaceOnUse"><stop offset="0" stop-color="#54a5ff"/><stop offset="1" stop-color="#8ad3fe"/></linearGradient><linearGradient id="linear-gradient-4" x1="23" x2="41" xlink:href="#linear-gradient-3"/><linearGradient id="linear-gradient-5" x1="7" x2="25" xlink:href="#linear-gradient-3"/><linearGradient id="linear-gradient-6" x1="48" y1="42" x2="48" y2="28" xlink:href="#linear-gradient-3"/><linearGradient id="linear-gradient-7" x1="32" y1="42" x2="32" y2="28" xlink:href="#linear-gradient-3"/><linearGradient id="linear-gradient-8" x1="16" y1="42" x2="16" y2="28" xlink:href="#linear-gradient-3"/></defs><title>Class</title><g id="Class"><rect class="cls-1" x="7" y="7" width="50" height="34" rx="2" ry="2"/><rect class="cls-2" x="10" y="10" width="44" height="28" rx="1" ry="1"/><path class="cls-3" d="M57,47V57H39V47a6,6,0,0,1,6-6h6A6,6,0,0,1,57,47Z"/><path class="cls-4" d="M44,47V57H42V47A1,1,0,0,1,44,47Z"/><path class="cls-4" d="M54,47V57H52V47A1,1,0,0,1,54,47Z"/><path class="cls-5" d="M41,47V57H23V47a6,6,0,0,1,6-6h6A6,6,0,0,1,41,47Z"/><path class="cls-4" d="M28,47V57H26V47A1,1,0,0,1,28,47Z"/><path class="cls-4" d="M38,47V57H36V47A1,1,0,0,1,38,47Z"/><path class="cls-6" d="M25,47V57H7V47a6,6,0,0,1,6-6h6A6,6,0,0,1,25,47Z"/><path class="cls-4" d="M12,47V57H10V47A1,1,0,0,1,12,47Z"/><path class="cls-4" d="M22,47V57H20V47A1,1,0,0,1,22,47Z"/><path class="cls-7" d="M48,42a5.83,5.83,0,0,1-5.83-5.83V33.83a5.83,5.83,0,0,1,11.66,0v2.34A5.83,5.83,0,0,1,48,42Z"/><path class="cls-8" d="M32,42a5.83,5.83,0,0,1-5.83-5.83V33.83a5.83,5.83,0,0,1,11.66,0v2.34A5.83,5.83,0,0,1,32,42Z"/><path class="cls-9" d="M16,42a5.83,5.83,0,0,1-5.83-5.83V33.83a5.83,5.83,0,0,1,11.66,0v2.34A5.83,5.83,0,0,1,16,42Z"/></g></svg>