<?xml version="1.0" encoding="UTF-8"?>
<!DOCTYPE svg PUBLIC "-//W3C//DTD SVG 1.1//EN" "http://www.w3.org/Graphics/SVG/1.1/DTD/svg11.dtd">
<!-- Creator: CorelDRAW -->
<svg xmlns="http://www.w3.org/2000/svg" xml:space="preserve" width="2048px" height="2048px" style="shape-rendering:geometricPrecision; text-rendering:geometricPrecision; image-rendering:optimizeQuality; fill-rule:evenodd; clip-rule:evenodd"
viewBox="0 0 2048 2048"
 xmlns:xlink="http://www.w3.org/1999/xlink">
 <defs>
  <style type="text/css">
   <![CDATA[
    .fil2 {fill:none}
    .fil1 {fill:#212121;fill-rule:nonzero}
    .fil0 {fill:#66BB6A;fill-rule:nonzero}
   ]]>
  </style>
 </defs>
 <g id="Layer_x0020_1">
  <metadata id="CorelCorpID_0Corel-Layer"/>
  <g id="_460795184">
   <path id="_460796312" class="fil0" d="M1530.89 1231.95c10.6134,2.81221 20.889,6.2941 30.7784,10.3937 10.1079,4.18937 19.8591,9.01772 29.204,14.4284l41.5146 -41.5146 -0.0011811 -0.0011811c9.37205,-9.37205 24.5681,-9.37205 33.9402,0l0.0862205 0.0885827 56.0977 56.0965 0.0011811 -0.00236221c9.37205,9.37205 9.37324,24.5693 0.0011811,33.9414l-0.133465 0.129921 -41.3835 41.3835c5.40827,9.34253 10.2331,19.0914 14.4213,29.1957 4.10079,9.89174 7.5815,20.1709 10.3961,30.7866l58.741 0c13.2543,0 24,10.7457 24,24l0 79.4587c0,13.2543 -10.7457,24 -24,24l-58.7386 0c-2.81339,10.6146 -6.29528,20.8914 -10.3949,30.7819 -4.18937,10.1055 -9.01418,19.8567 -14.4248,29.1992l41.5158 41.5158 0.0011811 -0.0011811c9.37205,9.37205 9.37205,24.5681 0,33.9402l-0.0885827 0.0862205 -56.0989 56.0977 -16.9689 -16.9689 16.9701 16.9713c-9.37205,9.37205 -24.5693,9.37087 -33.9414,-0.0011811l-0.129921 -0.133465 -41.3823 -41.3835c-9.34371,5.41063 -19.0949,10.2378 -29.2028,14.4272 -9.89056,4.09961 -20.1662,7.5815 -30.7796,10.3949l0 58.7374c0,13.2543 -10.7457,24 -24,24l-79.4587 0c-13.2543,0 -24,-10.7457 -24,-24l0 -58.7374c-10.6134,-2.81339 -20.8878,-6.29528 -30.7772,-10.3949 -10.1067,-4.18937 -19.8591,-9.01772 -29.204,-14.4284l-41.5158 41.517 0.00236221 0.0011811c-9.37205,9.37205 -24.5693,9.37324 -33.9414,0.0011811l-0.129921 -0.133465 -56.0528 -56.054 16.9689 -16.9689 -16.9713 16.9701c-9.37205,-9.37205 -9.37087,-24.5693 0.0011811,-33.9414l0.133465 -0.129921 41.3835 -41.3835c-5.40945,-9.34135 -10.2354,-19.0902 -14.4236,-29.1957 -4.10079,-9.89174 -7.58386,-20.1697 -10.3973,-30.7855l-58.7386 0c-13.2543,0 -24,-10.7457 -24,-24l0 -79.4587c0,-13.2543 10.7457,-24 24,-24l58.7374 0c2.81339,-10.6134 6.2941,-20.889 10.3937,-30.7772 4.19055,-10.1067 9.01772,-19.8591 14.4295,-29.204l-41.517 -41.5158 -0.0011811 0.00236221c-9.37205,-9.37205 -9.37324,-24.5693 -0.0011811,-33.9414l0.133465 -0.129921 56.0528 -56.0528 -0.0011811 -0.0011811c9.37205,-9.37205 24.5681,-9.37205 33.9402,0l0.0862205 0.0885827 41.426 41.426c9.34253,-5.41063 19.0937,-10.2366 29.1992,-14.4248 9.89174,-4.10079 20.1697,-7.58386 30.7843,-10.3961l0 -58.7363c0,-13.2543 10.7457,-24 24,-24l79.4587 0c13.2543,0 24,10.7457 24,24l0 58.7363zm12.4028 54.6449c-12.4429,-5.15788 -25.3843,-9.07914 -38.6611,-11.6091 -12.1949,-1.13858 -21.7417,-11.4012 -21.7417,-23.8937l0 -53.8784 -31.4587 0 0 53.6209c0.137008,11.511 -8.04686,21.7736 -19.7528,23.8784l-4.24725 -23.6209 4.2189 23.5311c-13.9654,2.51103 -27.5693,6.55985 -40.6276,11.974 -12.8575,5.32914 -25.0843,12.0118 -36.5067,19.8697 -9.40394,7.11969 -22.8567,6.39331 -31.4327,-2.18268l0.0011811 -0.0011811 -38.1189 -38.1189 -22.2461 22.2461 37.7764 37.774c8.37993,8.02678 9.91654,21.1772 3.08622,31.0075l-19.7103 -13.6937 19.6878 13.6878c-8.09056,11.6457 -14.9563,24.1382 -20.4083,37.2886 -5.1567,12.4417 -9.07796,25.3831 -11.6079,38.6599 -1.13858,12.1949 -11.4012,21.7417 -23.8937,21.7417l-53.8808 0 0 31.4587 53.5784 0c11.5287,-0.158268 21.815,8.03032 23.9232,19.7504l-23.6209 4.24961 23.5311 -4.2189c2.51103,13.9642 6.56103,27.5705 11.9752,40.6288 5.32796,12.8551 12.0071,25.0819 19.8614,36.4973 7.1256,9.40513 6.40158,22.8614 -2.17677,31.4398l-0.0011811 -0.0011811 -38.1201 38.1201 22.2461 22.2473 37.8177 -37.8189c8.0315,-8.34095 21.1536,-9.86103 30.9662,-3.04252l-13.6949 19.7091 13.6878 -19.6878c11.6445,8.09056 24.1358,14.9563 37.2874,20.4071 12.4441,5.15906 25.3866,9.08032 38.6622,11.6102 12.1937,1.13976 21.7394,11.4012 21.7394,23.8937l0 53.8796 31.4587 0 0 -53.6221c-0.137008,-11.511 8.04686,-21.7736 19.7528,-23.8784l4.24725 23.6209 -4.2189 -23.5311c13.963,-2.50984 27.5658,-6.55985 40.6229,-11.9728 12.8539,-5.32678 25.0748,-12.0059 36.4925,-19.8579 9.40631,-7.13386 22.8709,-6.41221 31.4528,2.16969l-0.00236221 0.0011811 38.1189 38.1201 22.2484 -22.2473 -37.8177 -37.8177c-8.34095,-8.03032 -9.86103,-21.1536 -3.04252,-30.9662l19.7091 13.6949 -19.6878 -13.6878c8.08938,-11.6421 14.9528,-24.1323 20.4036,-37.2827 5.16142,-12.4488 9.08032,-25.3949 11.6114,-38.6764 1.14331,-12.1902 11.4036,-21.7299 23.8925,-21.7299l53.8808 0 0 -31.4587 -53.5784 0c-11.5287,0.158268 -21.8162,-8.03032 -23.9244,-19.7504l23.6209 -4.24961 -23.5311 4.2189c-2.51221,-13.9654 -6.56221,-27.5717 -11.9752,-40.63 -5.32914,-12.8575 -12.0083,-25.0843 -19.865,-36.5044 -7.11969,-9.40394 -6.39331,-22.8567 2.18268,-31.4327l0.0011811 0.0011811 38.1189 -38.1189 -22.2473 -22.2461 -37.8166 37.8177c-8.03032,8.34095 -21.1536,9.85985 -30.9662,3.04134l13.6949 -19.7091 -13.6878 19.6878c-11.6433,-8.09056 -24.1358,-14.9563 -37.2874,-20.4071z"/>
   <path id="_460795040" class="fil0" d="M1467.16 1314.43c43.1233,0 82.1682,17.4827 110.431,45.7441 28.2614,28.2614 45.7441,67.3064 45.7441,110.431 0,43.1221 -17.4827,82.167 -45.7441,110.428 -28.2626,28.2614 -67.3075,45.7441 -110.431,45.7441 -43.1233,0 -82.1682,-17.4827 -110.43,-45.7441 -28.2614,-28.2614 -45.7441,-67.3052 -45.7441,-110.428 0,-43.1244 17.4827,-82.1694 45.7441,-110.431 28.2614,-28.2614 67.3064,-45.7441 110.43,-45.7441zm76.493 79.682c-19.5744,-19.5732 -46.6205,-31.6819 -76.493,-31.6819 -29.8725,0 -56.9185,12.1087 -76.4918,31.6819 -19.5732,19.5732 -31.6819,46.6193 -31.6819,76.493 0,29.8725 12.1087,56.9174 31.6819,76.4906 19.5732,19.5732 46.6193,31.6819 76.4918,31.6819 29.8725,0 56.9185,-12.1087 76.493,-31.6819 19.5732,-19.5732 31.6819,-46.6193 31.6819,-76.4906 0,-29.8736 -12.1087,-56.9197 -31.6819,-76.493z"/>
  </g>
  <path class="fil1" d="M619.659 1099.69l45.4122 0c6.48189,0 12.3626,2.57126 16.6807,6.74764 19.9748,16.1847 40.93,29.1201 62.589,37.8626 20.1992,8.15434 41.1166,12.6295 62.5241,12.6295 21.4075,0 42.3237,-4.47638 62.5217,-12.6295 22.2,-8.96103 43.6618,-22.3252 64.0867,-39.0792l-0.0330709 -0.0862205c4.46693,-3.66496 9.86103,-5.44607 15.2209,-5.4437l0 -0.0011811 0.0578741 0 45.3532 0c97.904,0 186.995,39.5622 252.075,103.478l-33.9378 33.9378c-56.4012,-55.2402 -133.482,-89.4154 -218.137,-89.4154l-37.1351 0c-22.1386,17.2748 -45.463,31.2484 -69.7371,41.0481 -25.8957,10.4539 -52.767,16.1917 -80.3351,16.1917 -27.5681,0 -54.4406,-5.7378 -80.3375,-16.1917 -24.274,-9.79961 -47.5961,-23.7744 -69.7323,-41.0481l-37.1362 0c-85.8331,0 -163.883,35.1319 -220.482,91.7316 -56.5996,56.5996 -91.7316,134.649 -91.7316,220.482l0 177.731 875.717 0c-8.13071,24.5622 -4.41969,33 10.5803,48l-910.298 0c-13.2543,0 -24,-10.7457 -24,-24l0 -201.731c0,-99.0839 40.5177,-189.144 105.794,-254.42 65.276,-65.276 155.336,-105.794 254.42,-105.794z"/>
  <path class="fil1" d="M806.865 255.999c105.966,0 201.975,25.539 269.772,79.7528 62.2878,49.8083 100.317,122.751 100.317,220.995 0,108.46 -47.6729,253.63 -123.109,363.072 -64.9477,94.2272 -151.071,163.035 -246.981,163.035 -95.9091,0 -182.034,-68.8075 -246.982,-163.035 -75.4359,-109.441 -123.109,-254.612 -123.109,-363.072 0,-98.2442 38.0292,-171.187 100.317,-220.995 67.7977,-54.2138 163.805,-79.7528 269.773,-79.7528zm239.959 117.066c-58.7126,-46.9489 -144.243,-69.0662 -239.959,-69.0662 -95.7166,0 -181.247,22.1173 -239.96,69.0662 -50.9953,40.7776 -82.1304,101.328 -82.1304,183.682 0,99.8339 44.3339,234.112 114.484,335.886 56.6563,82.1989 129.53,142.221 207.606,142.221 78.0757,0 150.949,-60.0225 207.605,-142.221 70.1504,-101.774 114.484,-236.053 114.484,-335.886 0,-82.3536 -31.1351,-142.904 -82.1304,-183.682z"/>
 </g>
 <rect class="fil2" width="2048" height="2048"/>
</svg>
