<?xml version="1.0" encoding="UTF-8"?>
<!DOCTYPE svg PUBLIC "-//W3C//DTD SVG 1.1//EN" "http://www.w3.org/Graphics/SVG/1.1/DTD/svg11.dtd">
<!-- Creator: CorelDRAW -->
<svg xmlns="http://www.w3.org/2000/svg" xml:space="preserve" width="2048px" height="2048px" style="shape-rendering:geometricPrecision; text-rendering:geometricPrecision; image-rendering:optimizeQuality; fill-rule:evenodd; clip-rule:evenodd"
viewBox="0 0 2048 2048"
 xmlns:xlink="http://www.w3.org/1999/xlink">
 <defs>
  <style type="text/css">
   <![CDATA[
    .fil0 {fill:none}
    .fil4 {fill:#0288D1}
    .fil6 {fill:#212121}
    .fil5 {fill:#B3E5FC}
    .fil1 {fill:#FB8C00}
    .fil2 {fill:#FFA726}
    .fil3 {fill:#FFB74D}
   ]]>
  </style>
 </defs>
 <g id="Layer_x0020_1">
  <metadata id="CorelCorpID_0Corel-Layer"/>
  <rect class="fil0" width="2048" height="2048"/>
  <rect class="fil0" x="255.999" y="255.999" width="1536" height="1536"/>
  <rect class="fil0" x="255.999" y="255.999" width="1536" height="1536"/>
  <path class="fil1" d="M1114.52 1792l0.124016 0 580.544 0 -3.26929 -326.542c-99.9792,-230.737 -338.952,-365.782 -576.82,-374.608l-0.578741 -0.0177165 0 701.168z"/>
  <path class="fil2" d="M533.857 1620.79l0 171.215 580.667 0 0 -701.168c-98.3127,-3.56339 -196.419,14.4059 -284.423,56.1461 -171.304,100.008 -277.98,251.627 -296.244,473.807z"/>
  <path class="fil3" d="M1114.52 1073.48l-0.19252 0.00236221c-216.983,0 -392.554,-175.983 -392.554,-392.966 0,-216.561 175.571,-392.518 392.554,-392.518l0.19252 0.00236221 0 785.48z"/>
  <path class="fil2" d="M1507.27 680.517c0,216.722 -175.537,392.534 -392.158,392.957l-0.589371 0.00708662 0 -785.48c0.367323,0 0.732284,0.0129921 1.09843,0.0141732 216.389,0.696851 391.649,176.371 391.649,392.502z"/>
  <path class="fil4" d="M822.214 1323.65c0,129.658 -105.157,234.832 -234.815,234.832 -129.675,0 -234.592,-105.174 -234.592,-234.832 0,-129.418 104.917,-234.567 234.592,-234.567 129.658,0 234.815,105.149 234.815,234.567z"/>
  <path class="fil5" d="M776.529 1323.67c0,104.421 -84.6839,189.122 -189.105,189.122 -104.43,0 -188.933,-84.7005 -188.933,-189.122 0,-104.223 84.5032,-188.908 188.933,-188.908 104.421,0 189.105,84.6851 189.105,188.908z"/>
  <path class="fil6" d="M618.384 1196.6l-56.2961 0c-0.206693,27.1477 0,98.3658 0,98.3658 0,0 -61.2603,0 -91.6087,0l0 56.4957c30.3484,-0.206693 91.6087,-0.206693 91.6087,-0.206693 0,0 0,71.1603 -0.206693,98.3079l56.5028 0c0,-27.1477 0,-98.3079 0,-98.3079l91.6087 0 0 -56.289 -91.6087 0c0,0 0,-71.2182 0,-98.3658z"/>
  <path class="fil4" d="M618.384 1196.6l-56.2961 0c-0.206693,27.1477 0,98.3658 0,98.3658 0,0 -61.2603,0 -91.6087,0l0 56.4957c30.3484,-0.206693 91.6087,-0.206693 91.6087,-0.206693 0,0 0,71.1603 -0.206693,98.3079l56.5028 0c0,-27.1477 0,-98.3079 0,-98.3079l91.6087 0 0 -56.289 -91.6087 0c0,0 0,-71.2182 0,-98.3658z"/>
 </g>
</svg>
