<?xml version="1.0" encoding="utf-8"?>
<!-- Generator: Adobe Illustrator 16.0.0, SVG Export Plug-In . SVG Version: 6.00 Build 0)  -->
<!DOCTYPE svg PUBLIC "-//W3C//DTD SVG 1.1//EN" "http://www.w3.org/Graphics/SVG/1.1/DTD/svg11.dtd">
<svg version="1.1" id="icons" xmlns="http://www.w3.org/2000/svg" xmlns:xlink="http://www.w3.org/1999/xlink" x="0px" y="0px"
	 width="64px" height="64px" viewBox="0 0 64 64" enable-background="new 0 0 64 64" xml:space="preserve">
<g>
	<g>
		<polygon fill="#545C66" points="42,46 42,61 32,61 32,59 39,46 		"/>
		<path fill="#545C66" d="M53,54v7h-6.989V46.06c1.989,0.25,3.739,1.23,5,2.65C52.25,50.12,53,51.97,53,54z"/>
		<path fill="#434A54" d="M51.011,48.71c-1.261-1.42-3.011-2.4-5-2.65C45.681,46.02,45.341,46,45,46h-3h-1.004
			c0.341,0,0.681,0.02,1.011,0.06c1.989,0.25,3.739,1.23,5,2.65c1.239,1.41,1.989,3.26,1.989,5.29v7H53v-7
			C53,51.97,52.25,50.12,51.011,48.71z"/>
		<path fill="#656D78" d="M22,46v15h-4V46.06c0.33-0.04,0.66-0.06,1-0.06H22z"/>
		<path fill="#CCD1D9" d="M25,42v4h-3h-3c-0.34,0-0.67,0.02-1,0.06c-1.979,0.25-3.739,1.221-5,2.641V47c0-2.75,2.25-5,5-5H25z"/>
		<path fill="#656D78" d="M46.011,46.06V61H42V46h3C45.341,46,45.681,46.02,46.011,46.06z"/>
		<path fill="#965353" d="M47,15v6l-4-4c0,0-5,3-11,3s-11-3-11-3l-4,4v-5c0-7.19,5.82-13,13-13h10v5C43.87,8,47,11.13,47,15z"/>
		<path fill="#844747" d="M47,21v-6c0-3.87-3.13-7-7-7V3h-4v5c0,2.209,1.791,4,4,4c1.654,0,3,1.346,3,3v2L47,21z"/>
		<polygon fill="#545C66" points="32,59 32,61 22,61 22,46 25,46 		"/>
		<path fill="#545C66" d="M42.007,46.06c1.509,0.189,2.879,0.801,4.004,1.705V46.06C45.681,46.02,45.341,46,45,46h-3v0.06
			C42.002,46.06,42.005,46.06,42.007,46.06z"/>
		<path fill="#CCD1D9" d="M51.011,47v1.71c-1.261-1.42-3.011-2.4-5-2.65C45.681,46.02,45.341,46,45,46h-3h-3v-4h7.011
			C48.761,42,51.011,44.25,51.011,47z"/>
		<path fill="#AAB2BD" d="M46.011,42h-4.004c2.489,0,4.55,1.849,4.923,4.237c1.606,0.398,3.019,1.276,4.081,2.473V47
			C51.011,44.25,48.761,42,46.011,42z"/>
		<path fill="#EAC6BB" d="M47,21v6c0,5.76-3.239,10.76-8,13.27C36.91,41.37,34.53,42,32,42c-2.529,0-4.909-0.63-7-1.73
			c-4.76-2.51-8-7.51-8-13.27v-6l4-4c0,0,5,3,11,3s11-3,11-3L47,21z"/>
		<path fill="#D3B1A9" d="M43,17l-0.004,0.002V27c0,5.76-3.239,10.76-8,13.27c-1.528,0.805-3.214,1.354-4.998,1.594
			C30.653,41.951,31.32,42,32,42c2.53,0,4.91-0.63,7-1.73c4.761-2.51,8-7.51,8-13.27v-6L43,17z"/>
		<path fill="#F5F7FA" d="M25,40.27C27.091,41.37,29.471,42,32,42c2.53,0,4.91-0.63,7-1.73V42v4l-4,2l-3-1l-2.989,1L25,46v-4V40.27z
			"/>
		<polygon fill="#E6E9ED" points="35,48 39,46 32,59 25,46 29.011,48 32,47 		"/>
		<path fill="#545C66" d="M18,46.06V61h-6.989L11,54c0-2.03,0.75-3.88,2-5.29V48.7C14.261,47.28,16.021,46.31,18,46.06z"/>
	</g>
	<g>
		<g>
			<path fill="#CCD1D9" d="M32.023,52c-0.553,0-1.005-0.447-1.005-1s0.442-1,0.994-1h0.011c0.552,0,1,0.447,1,1S32.575,52,32.023,52
				z"/>
		</g>
	</g>
</g>
</svg>
